<mxfile host="app.diagrams.net" modified="2022-02-07T13:52:26.664Z" agent="5.0 (Macintosh; Intel Mac OS X 10_15_7) AppleWebKit/537.36 (KHTML, like Gecko) Chrome/97.0.4692.71 Safari/537.36" etag="8uOd8fpKq_hxLZkv0sex" version="16.5.3" type="github">
  <diagram name="Page-1" id="929967ad-93f9-6ef4-fab6-5d389245f69c">
    <mxGraphModel dx="946" dy="536" grid="1" gridSize="10" guides="1" tooltips="1" connect="1" arrows="1" fold="1" page="1" pageScale="1.5" pageWidth="1169" pageHeight="826" background="none" math="0" shadow="0">
      <root>
        <mxCell id="0" style=";html=1;" />
        <mxCell id="1" style=";html=1;" parent="0" />
        <mxCell id="a_ZKfFAoc-Px45kUoD6h-6" value="메시지" style="edgeStyle=orthogonalEdgeStyle;rounded=0;orthogonalLoop=1;jettySize=auto;html=1;exitX=1;exitY=0.5;exitDx=0;exitDy=0;" edge="1" parent="1" source="a_ZKfFAoc-Px45kUoD6h-1" target="a_ZKfFAoc-Px45kUoD6h-5">
          <mxGeometry relative="1" as="geometry" />
        </mxCell>
        <mxCell id="a_ZKfFAoc-Px45kUoD6h-8" value="메타데이터" style="edgeStyle=orthogonalEdgeStyle;rounded=0;orthogonalLoop=1;jettySize=auto;html=1;exitX=0.5;exitY=0;exitDx=0;exitDy=0;entryX=0.5;entryY=1;entryDx=0;entryDy=0;" edge="1" parent="1" source="a_ZKfFAoc-Px45kUoD6h-1" target="a_ZKfFAoc-Px45kUoD6h-7">
          <mxGeometry relative="1" as="geometry" />
        </mxCell>
        <mxCell id="a_ZKfFAoc-Px45kUoD6h-1" value="카프카" style="rounded=1;whiteSpace=wrap;html=1;" vertex="1" parent="1">
          <mxGeometry x="560" y="450" width="120" height="60" as="geometry" />
        </mxCell>
        <mxCell id="a_ZKfFAoc-Px45kUoD6h-3" style="edgeStyle=orthogonalEdgeStyle;rounded=0;orthogonalLoop=1;jettySize=auto;html=1;entryX=0;entryY=0.5;entryDx=0;entryDy=0;" edge="1" parent="1" source="a_ZKfFAoc-Px45kUoD6h-2" target="a_ZKfFAoc-Px45kUoD6h-1">
          <mxGeometry relative="1" as="geometry" />
        </mxCell>
        <mxCell id="a_ZKfFAoc-Px45kUoD6h-4" value="메시지" style="edgeLabel;html=1;align=center;verticalAlign=middle;resizable=0;points=[];" vertex="1" connectable="0" parent="a_ZKfFAoc-Px45kUoD6h-3">
          <mxGeometry x="0.24" relative="1" as="geometry">
            <mxPoint as="offset" />
          </mxGeometry>
        </mxCell>
        <mxCell id="a_ZKfFAoc-Px45kUoD6h-2" value="카프카" style="rounded=1;whiteSpace=wrap;html=1;" vertex="1" parent="1">
          <mxGeometry x="340" y="450" width="120" height="60" as="geometry" />
        </mxCell>
        <mxCell id="a_ZKfFAoc-Px45kUoD6h-5" value="카프카" style="rounded=1;whiteSpace=wrap;html=1;" vertex="1" parent="1">
          <mxGeometry x="770" y="450" width="120" height="60" as="geometry" />
        </mxCell>
        <mxCell id="a_ZKfFAoc-Px45kUoD6h-7" value="주키퍼" style="rounded=1;whiteSpace=wrap;html=1;" vertex="1" parent="1">
          <mxGeometry x="560" y="320" width="120" height="60" as="geometry" />
        </mxCell>
      </root>
    </mxGraphModel>
  </diagram>
</mxfile>
